<svg xmlns="http://www.w3.org/2000/svg" viewBox="0 0 40 50"><defs><style>.cls-1{fill:#9db6fc;}.cls-2{fill:#0b006b;}.cls-3{fill:#c8ddfc;stroke:#0b006b;stroke-linejoin:round;stroke-width:2px;}</style></defs><g id="Слой_2" data-name="Слой 2"><g id="Слой_16" data-name="Слой 16"><path class="cls-1" d="M36,0H4a4,4,0,0,0-2.9,1.25h0A4,4,0,0,0,0,4V40.86a4,4,0,0,0,1.11,2.77h0A4,4,0,0,0,4,44.89H14.82a2.29,2.29,0,0,1,2,1.27l1.38,2.69a2,2,0,0,0,3.54,0l1.4-2.7a2.27,2.27,0,0,1,2-1.26H36a4,4,0,0,0,2.91-1.25h0A4,4,0,0,0,40,40.86V4a4,4,0,0,0-1.11-2.77h0A4,4,0,0,0,36,0Z"/><path class="cls-2" d="M36,2a2,2,0,0,1,1.45.62A2,2,0,0,1,38,4.06V40.94a2,2,0,0,1-2,2H25.18a4.27,4.27,0,0,0-3.8,2.34L20,48l-1.38-2.69A4.28,4.28,0,0,0,14.81,43H4a2,2,0,0,1-2-2V4.06A2,2,0,0,1,4,2H36m0-2H4a4,4,0,0,0-4,4V40.94a4.06,4.06,0,0,0,1.11,2.78A4,4,0,0,0,4,45h10.8a2.28,2.28,0,0,1,2,1.26l1.38,2.69A2,2,0,0,0,20,50a2,2,0,0,0,1.78-1.08l1.39-2.7a2.28,2.28,0,0,1,2-1.26H36a4,4,0,0,0,4-4V4.06a4,4,0,0,0-4-4Z"/><rect class="cls-3" x="6.66" y="19.16" width="27.45" height="15.41"/><line class="cls-3" x1="6.66" y1="22.73" x2="34.11" y2="22.73"/><rect class="cls-3" x="5.68" y="10.86" width="27.45" height="3.56" transform="translate(-2.44 4.96) rotate(-13.71)"/><line class="cls-3" x1="10.82" y1="12.91" x2="8.5" y2="17.14"/><line class="cls-3" x1="11.72" y1="23.14" x2="9.41" y2="18.91"/><line class="cls-3" x1="16.76" y1="11.62" x2="14.45" y2="15.85"/><line class="cls-3" x1="23.27" y1="9.92" x2="20.96" y2="14.15"/><line class="cls-3" x1="29.3" y1="8.69" x2="26.99" y2="12.92"/><line class="cls-3" x1="17.66" y1="23.14" x2="15.35" y2="18.91"/><line class="cls-3" x1="23.89" y1="23.14" x2="21.58" y2="18.91"/><line class="cls-3" x1="30.11" y1="23.14" x2="27.8" y2="18.91"/></g></g></svg>