<svg xmlns="http://www.w3.org/2000/svg" viewBox="0 0 40 49.88"><defs><style>.cls-1{fill:#9db6fc;}.cls-2{fill:#0b006b;}.cls-3{fill:#c8ddfc;}.cls-3,.cls-4{stroke:#0b006b;stroke-linecap:round;stroke-linejoin:round;stroke-width:2px;}.cls-4{fill:none;}</style></defs><g id="Слой_2" data-name="Слой 2"><g id="Слой_17" data-name="Слой 17"><path class="cls-1" d="M36,0H4a4,4,0,0,0-2.9,1.24h0A4,4,0,0,0,0,4V40.76a4,4,0,0,0,1.11,2.77h0A4,4,0,0,0,4,44.78H14.82a2.29,2.29,0,0,1,2,1.27l1.38,2.68a2,2,0,0,0,3.55,0L23.16,46a2.28,2.28,0,0,1,2-1.26H36a4,4,0,0,0,2.9-1.24h0A4,4,0,0,0,40,40.76V4a4,4,0,0,0-1.11-2.76h0A4,4,0,0,0,36,0Z"/><path class="cls-2" d="M36,2a2,2,0,0,1,1.45.62A2,2,0,0,1,38,4.05V40.84a2,2,0,0,1-2,2H25.18a4.28,4.28,0,0,0-3.8,2.34L20,47.88,18.62,45.2a4.28,4.28,0,0,0-3.81-2.35H4a2,2,0,0,1-2-2V4.05a2,2,0,0,1,.56-1.39A2,2,0,0,1,4,2H36m0-2H4a4.06,4.06,0,0,0-2.9,1.23A4,4,0,0,0,0,4.05V40.84a4,4,0,0,0,4,4h10.8a2.28,2.28,0,0,1,2,1.26l1.38,2.68A2,2,0,0,0,20,49.88a2,2,0,0,0,1.78-1.08l1.39-2.69a2.28,2.28,0,0,1,2-1.26H36a4,4,0,0,0,4-4V4.05a4,4,0,0,0-1.11-2.78A4.06,4.06,0,0,0,36,0Z"/><rect class="cls-3" x="25.24" y="29.53" width="3.47" height="7.03"/><polyline class="cls-3" points="30.92 17.95 30.91 24.26 30.87 24.26 19.29 28.59 9.13 24.28 9.08 17.72"/><line class="cls-4" x1="26.98" y1="18.96" x2="26.98" y2="28.86"/><polygon class="cls-3" points="34.12 16.3 19.11 21.91 5.88 16.39 19.71 9.84 34.12 16.3"/><line class="cls-4" x1="27.1" y1="18.86" x2="20" y2="15.87"/></g></g></svg>