<svg xmlns="http://www.w3.org/2000/svg" viewBox="0 0 40 49.88"><defs><style>.cls-1{fill:#9db6fc;}.cls-2{fill:#0b006b;}.cls-3{fill:#c8ddfc;stroke:#0b006b;stroke-linecap:round;stroke-linejoin:round;stroke-width:2px;}</style></defs><g id="Слой_2" data-name="Слой 2"><g id="Слой_5" data-name="Слой 5"><path class="cls-1" d="M36,0H4a4,4,0,0,0-2.9,1.24h0A4,4,0,0,0,0,4V40.76a4,4,0,0,0,1.11,2.77h0A4,4,0,0,0,4,44.78H14.82a2.29,2.29,0,0,1,2,1.27l1.38,2.68a2,2,0,0,0,3.55,0L23.16,46a2.28,2.28,0,0,1,2-1.26H36a4,4,0,0,0,2.9-1.24h0A4,4,0,0,0,40,40.76V4a4,4,0,0,0-1.11-2.76h0A4,4,0,0,0,36,0Z"/><path class="cls-2" d="M36,2a2,2,0,0,1,1.45.62A2,2,0,0,1,38,4.05V40.84a2,2,0,0,1-2,2H25.18a4.28,4.28,0,0,0-3.8,2.34L20,47.88,18.62,45.2a4.28,4.28,0,0,0-3.8-2.35H4a2,2,0,0,1-2-2V4.05a2,2,0,0,1,.56-1.39A2,2,0,0,1,4,2H36m0-2H4a4.06,4.06,0,0,0-2.9,1.23A4,4,0,0,0,0,4.05V40.84a4,4,0,0,0,4,4H14.82a2.28,2.28,0,0,1,2,1.26l1.38,2.68A2,2,0,0,0,20,49.88a2,2,0,0,0,1.78-1.08l1.39-2.69a2.28,2.28,0,0,1,2-1.26H36a4,4,0,0,0,4-4V4.05a4,4,0,0,0-1.11-2.78A4.06,4.06,0,0,0,36,0Z"/><path class="cls-3" d="M23.43,26.58V25.2a1.93,1.93,0,0,1,.67-1.45,6.07,6.07,0,0,0-1-9.83V10.79l2-3.08H15.15L17,10.79v3.12a6.09,6.09,0,0,0-1,9.9,1.72,1.72,0,0,1,.6,1.3v1.47"/><polyline class="cls-3" points="9.08 30.58 9.08 26.58 31.57 26.58 31.57 30.58"/><rect class="cls-3" x="7.62" y="30.58" width="25.41" height="6.73"/><line class="cls-3" x1="14.45" y1="16.79" x2="25.65" y2="16.79"/><line class="cls-3" x1="14.45" y1="19.92" x2="25.65" y2="19.92"/></g></g></svg>