<svg xmlns="http://www.w3.org/2000/svg" viewBox="0 0 40 50"><defs><style>.cls-1{fill:#9db6fc;}.cls-2{fill:#0b006b;}.cls-3{fill:#c8ddfc;stroke:#0b006b;stroke-linecap:round;stroke-linejoin:round;stroke-width:2px;}</style></defs><g id="Слой_2" data-name="Слой 2"><g id="Слой_19" data-name="Слой 19"><path class="cls-1" d="M36,0H4a4,4,0,0,0-2.9,1.25h0A4,4,0,0,0,0,4V40.86a4,4,0,0,0,1.11,2.77h0A4,4,0,0,0,4,44.89H14.82a2.29,2.29,0,0,1,2,1.27l1.38,2.69a2,2,0,0,0,3.55,0l1.39-2.7a2.28,2.28,0,0,1,2-1.26H36a4,4,0,0,0,2.9-1.25h0A4,4,0,0,0,40,40.86V4a4,4,0,0,0-1.11-2.77h0A4,4,0,0,0,36,0Z"/><path class="cls-2" d="M36,2a2,2,0,0,1,2,2V40.94a2,2,0,0,1-2,2H25.18a4.27,4.27,0,0,0-3.8,2.34L20,48l-1.38-2.69A4.28,4.28,0,0,0,14.82,43H4a2,2,0,0,1-2-2V4.06A2,2,0,0,1,4,2H36m0-2H4a4,4,0,0,0-4,4V40.94a4,4,0,0,0,4,4H14.82a2.28,2.28,0,0,1,2,1.26l1.38,2.69A2,2,0,0,0,20,50a2,2,0,0,0,1.78-1.08l1.39-2.7a2.28,2.28,0,0,1,2-1.26H36a4,4,0,0,0,4-4V4.06a4,4,0,0,0-4-4Z"/><rect class="cls-3" x="4.2" y="30.82" width="31.6" height="3.61"/><path class="cls-3" d="M5,30A15.27,15.27,0,0,1,20,14.49,15.27,15.27,0,0,1,35,30"/><circle class="cls-3" cx="20" cy="12.06" r="1.62"/></g></g></svg>