<svg xmlns="http://www.w3.org/2000/svg" viewBox="0 0 40 50"><defs><style>.cls-1{fill:#9db6fc;}.cls-2{fill:#0b006b;}.cls-3{fill:#c8ddfc;}.cls-3,.cls-4{stroke:#0b006b;stroke-linecap:round;stroke-linejoin:round;stroke-width:2px;}.cls-4{fill:none;}</style></defs><g id="Слой_2" data-name="Слой 2"><g id="Слой_7" data-name="Слой 7"><path class="cls-1" d="M36,0H4a4,4,0,0,0-2.9,1.25h0A4,4,0,0,0,0,4V40.86a4,4,0,0,0,1.11,2.77h0A4,4,0,0,0,4,44.89H14.82a2.29,2.29,0,0,1,2,1.27l1.38,2.69a2,2,0,0,0,3.55,0l1.39-2.7a2.28,2.28,0,0,1,2-1.26H36a4,4,0,0,0,2.9-1.25h0A4,4,0,0,0,40,40.86V4a4,4,0,0,0-1.11-2.77h0A4,4,0,0,0,36,0Z"/><path class="cls-2" d="M36,2a2,2,0,0,1,2,2V40.94a2,2,0,0,1-2,2H25.18a4.27,4.27,0,0,0-3.8,2.34L20,48l-1.38-2.69A4.28,4.28,0,0,0,14.82,43H4a2,2,0,0,1-2-2V4.06A2,2,0,0,1,4,2H36m0-2H4a4,4,0,0,0-4,4V40.94a4,4,0,0,0,4,4H14.82a2.28,2.28,0,0,1,2,1.26l1.38,2.69A2,2,0,0,0,20,50a2,2,0,0,0,1.78-1.08l1.39-2.7a2.28,2.28,0,0,1,2-1.26H36a4,4,0,0,0,4-4V4.06a4,4,0,0,0-4-4Z"/><path class="cls-3" d="M22.64,21.59,29.89,9.18s6.89,3.3,6.37,12.41"/><path class="cls-3" d="M22.64,29.66c7.52,0,13.62-3.61,13.62-8.07H9C9,26.05,15.11,29.66,22.64,29.66Z"/><polyline class="cls-4" points="3.71 16.05 9.01 16.05 9.01 21.59"/><line class="cls-3" x1="26.88" y1="29.31" x2="17.56" y2="35.76"/><line class="cls-3" x1="17.98" y1="29.18" x2="27.1" y2="35.34"/><circle class="cls-3" cx="15.56" cy="36.44" r="1.93"/><circle class="cls-3" cx="28.69" cy="36.44" r="1.93"/></g></g></svg>