<svg xmlns="http://www.w3.org/2000/svg" viewBox="0 0 40 50"><defs><style>.cls-1{fill:#9db6fc;}.cls-2{fill:#0b006b;}.cls-3{fill:#c8ddfc;stroke:#0b006b;stroke-linecap:round;stroke-linejoin:round;stroke-width:2px;}</style></defs><g id="Слой_2" data-name="Слой 2"><g id="Слой_4" data-name="Слой 4"><path class="cls-1" d="M36,0H4a4,4,0,0,0-2.9,1.25h0A4,4,0,0,0,0,4V40.86a4,4,0,0,0,1.11,2.77h0A4,4,0,0,0,4,44.89H14.82a2.29,2.29,0,0,1,2,1.27l1.38,2.69a2,2,0,0,0,3.54,0l1.4-2.7a2.27,2.27,0,0,1,2-1.26H36a4,4,0,0,0,2.91-1.25h0A4,4,0,0,0,40,40.86V4a4,4,0,0,0-1.11-2.77h0A4,4,0,0,0,36,0Z"/><path class="cls-2" d="M36,2a2,2,0,0,1,1.45.62A2,2,0,0,1,38,4.06V40.94a2,2,0,0,1-2,2H25.18a4.27,4.27,0,0,0-3.8,2.34L20,48l-1.38-2.69A4.28,4.28,0,0,0,14.81,43H4a2,2,0,0,1-2-2V4.06A2,2,0,0,1,4,2H36m0-2H4a4,4,0,0,0-4,4V40.94a4,4,0,0,0,4,4h10.8a2.28,2.28,0,0,1,2,1.26l1.38,2.69A2,2,0,0,0,20,50a2,2,0,0,0,1.78-1.08l1.39-2.7a2.28,2.28,0,0,1,2-1.26H36a4,4,0,0,0,4-4V4.06a4,4,0,0,0-4-4Z"/><path class="cls-3" d="M15.7,27.84h7.54c1.71,3.83,4.84,5.34,7.54,4.79,3.47-.72,5.31-6,4.11-11.83s-5-10-8.44-9.24a5.56,5.56,0,0,0-3.57,3.09H16.65a4.86,4.86,0,0,0-3.28-3c-3.34-.69-7,3.47-8.21,9.29S5.7,32,9,32.68c2.4.49,5-1.51,6.67-4.84"/><line class="cls-3" x1="11.93" y1="19.34" x2="11.93" y2="24.94"/><line class="cls-3" x1="9.12" y1="22.14" x2="14.6" y2="22.14"/><circle class="cls-3" cx="27.78" cy="18.31" r="0.49"/><circle class="cls-3" cx="24.03" cy="21.69" r="0.49"/><circle class="cls-3" cx="30.93" cy="21.69" r="0.49"/><circle class="cls-3" cx="27.78" cy="24.45" r="0.49"/></g></g></svg>