<svg xmlns="http://www.w3.org/2000/svg" viewBox="0 0 40 50"><defs><style>.cls-1{fill:#9db6fc;}.cls-2{fill:#0b006b;}.cls-3{fill:#c8ddfc;stroke-width:2px;}.cls-3,.cls-4{stroke:#0b006b;stroke-linecap:round;stroke-linejoin:round;}.cls-4{stroke-width:0.5px;}</style></defs><g id="Слой_2" data-name="Слой 2"><g id="Слой_13" data-name="Слой 13"><path class="cls-1" d="M36,0H4a4,4,0,0,0-2.9,1.25h0A4,4,0,0,0,0,4V40.86a4,4,0,0,0,1.11,2.77h0A4,4,0,0,0,4,44.89H14.82a2.29,2.29,0,0,1,2,1.27l1.38,2.69a2,2,0,0,0,3.54,0l1.4-2.7a2.27,2.27,0,0,1,2-1.26H36a4,4,0,0,0,2.91-1.25h0A4,4,0,0,0,40,40.86V4a4,4,0,0,0-1.11-2.77h0A4,4,0,0,0,36,0Z"/><path class="cls-2" d="M36,2a2,2,0,0,1,1.45.62A2,2,0,0,1,38,4.06V40.94a2,2,0,0,1-2,2H25.18a4.27,4.27,0,0,0-3.8,2.34L20,48l-1.38-2.69A4.28,4.28,0,0,0,14.81,43H4a2,2,0,0,1-2-2V4.06A2,2,0,0,1,4,2H36m0-2H4a4,4,0,0,0-4,4V40.94a4.06,4.06,0,0,0,1.11,2.78A4,4,0,0,0,4,45h10.8a2.28,2.28,0,0,1,2,1.26l1.38,2.69A2,2,0,0,0,20,50a2,2,0,0,0,1.78-1.08l1.39-2.7a2.28,2.28,0,0,1,2-1.26H36a4,4,0,0,0,4-4V4.06a4,4,0,0,0-4-4Z"/><path class="cls-3" d="M22,4.78c-6.12,0-11.08,3.19-11.08,7.13l0,1.45L6.73,18.61,14.6,17.2A14.87,14.87,0,0,0,22,19c6.12,0,11.08-3.19,11.08-7.12S28.12,4.78,22,4.78Z"/><path class="cls-3" d="M19,23.24c6.11,0,11.07,3.19,11.07,7.13l0,1.45,4.15,5.25L26.4,35.66A14.9,14.9,0,0,1,19,37.5c-6.12,0-11.08-3.2-11.08-7.13S12.88,23.24,19,23.24Z"/><path class="cls-4" d="M20,33.6,20,32.87h0a2.12,2.12,0,0,1-1.76.86,1.64,1.64,0,0,1-1.76-1.66c0-1.39,1.24-2.15,3.46-2.14v-.12a1.19,1.19,0,0,0-1.31-1.33,2.92,2.92,0,0,0-1.5.43l-.23-.69a3.53,3.53,0,0,1,1.89-.51c1.76,0,2.19,1.2,2.19,2.35v2.16A7.27,7.27,0,0,0,21,33.6Zm-.15-2.94c-1.14,0-2.44.18-2.44,1.3a.93.93,0,0,0,1,1,1.43,1.43,0,0,0,1.39-1,1.28,1.28,0,0,0,.06-.33Z"/><path class="cls-4" d="M20.29,25.74l-1.73,1.42L17.83,27l1.32-1.49Z"/><path class="cls-4" d="M20.93,12.51l-.65,1.94h-.82l2.1-6.17h1l2.1,6.17h-.85l-.66-1.94Zm2-.62-.61-1.78c-.13-.4-.22-.77-.32-1.12h0c-.1.36-.2.74-.32,1.11l-.6,1.79Z"/></g></g></svg>