<svg xmlns="http://www.w3.org/2000/svg" viewBox="0 0 40 50"><defs><style>.cls-1{fill:#8cdb72;}.cls-2{fill:#28b20b;}.cls-3{fill:#c4fcb4;}.cls-4{opacity:0.44;}.cls-5,.cls-8,.cls-9{fill:none;stroke-linejoin:round;stroke-width:2px;}.cls-5{stroke:#208906;}.cls-5,.cls-8{stroke-linecap:round;}.cls-6{opacity:0.45;}.cls-7{opacity:0.43;}.cls-8,.cls-9{stroke:#28b20b;}</style></defs><g id="Слой_2" data-name="Слой 2"><path class="cls-1" d="M36,0H4a4,4,0,0,0-2.9,1.25h0A4,4,0,0,0,0,4V40.86a4,4,0,0,0,1.11,2.77h0A4,4,0,0,0,4,44.89H14.82a2.29,2.29,0,0,1,2,1.27l1.38,2.69a2,2,0,0,0,3.55,0l1.39-2.7a2.28,2.28,0,0,1,2-1.26H36a4,4,0,0,0,2.9-1.25h0A4,4,0,0,0,40,40.86V4a4,4,0,0,0-1.11-2.77h0A4,4,0,0,0,36,0Z"/><path class="cls-2" d="M36,2a2,2,0,0,1,2,2V40.94a2,2,0,0,1-2,2H25.18a4.27,4.27,0,0,0-3.8,2.34L20,48l-1.38-2.69A4.28,4.28,0,0,0,14.81,43H4a2,2,0,0,1-2-2V4.06A2,2,0,0,1,4,2H36m0-2H4a4,4,0,0,0-2.9,1.24h0A4,4,0,0,0,0,4.06V40.94a4.06,4.06,0,0,0,1.11,2.78h0A4,4,0,0,0,4,45h10.8a2.28,2.28,0,0,1,2,1.26l1.38,2.69A2,2,0,0,0,20,50a2,2,0,0,0,1.78-1.08l1.39-2.7a2.28,2.28,0,0,1,2-1.26H36a4,4,0,0,0,4-4V4.06a4,4,0,0,0-4-4Z"/><path class="cls-3" d="M24.08,28.55H24l4.61-6.68c4.13-6,.54-14.5-6.68-15.15-.33,0-.65,0-1,0s-.66,0-1,0c-7.22.65-10.81,9.19-6.69,15.15l4.61,6.67c-5.35.53-9.31,2.43-9.31,4.69,0,2.68,5.54,4.85,12.37,4.85s12.37-2.17,12.37-4.85C33.31,31,29.39,29.09,24.08,28.55Z"/><g class="cls-4"><polyline class="cls-5" points="16.05 15.69 19 20.3 23.07 12.48"/><path class="cls-5" d="M22.7,28.55c5.31.54,9.23,2.43,9.23,4.68,0,2.68-5.54,4.85-12.37,4.85S7.19,35.91,7.19,33.23c0-2.26,4-4.16,9.31-4.69"/><path class="cls-5" d="M27.23,21.87c4.12-6,.53-14.5-6.69-15.15-.32,0-.65,0-1,0s-.66,0-1,0c-7.22.65-10.81,9.19-6.69,15.15L19.56,33Z"/></g><g class="cls-6"><polyline class="cls-5" points="16.57 15.69 19.52 20.3 23.59 12.48"/><path class="cls-5" d="M23.22,28.55c5.31.54,9.23,2.43,9.23,4.68,0,2.68-5.54,4.85-12.37,4.85S7.71,35.91,7.71,33.23c0-2.26,4-4.16,9.31-4.69"/><path class="cls-5" d="M27.75,21.87c4.12-6,.53-14.5-6.69-15.15-.32,0-.65,0-1,0s-.65,0-1,0c-7.22.65-10.81,9.19-6.69,15.15L20.08,33Z"/></g><g class="cls-7"><polyline class="cls-5" points="15.55 15.69 18.5 20.3 22.57 12.48"/><path class="cls-5" d="M22.21,28.55c5.3.54,9.22,2.43,9.22,4.68,0,2.68-5.54,4.85-12.37,4.85S6.69,35.91,6.69,33.23c0-2.26,4-4.16,9.32-4.69"/><path class="cls-5" d="M26.73,21.87c4.12-6,.53-14.5-6.69-15.15-.32,0-.65,0-1,0s-.65,0-1,0c-7.22.65-10.81,9.19-6.68,15.15L19.06,33Z"/></g><polyline class="cls-8" points="17.43 15.69 20.37 20.3 24.45 12.48"/><path class="cls-9" d="M28.6,21.87c4.13-6,.54-14.5-6.68-15.15-.33,0-.65,0-1,0s-.66,0-1,0c-7.22.65-10.81,9.19-6.69,15.15L20.94,33Z"/><path class="cls-9" d="M24.08,28.55c5.31.54,9.23,2.43,9.23,4.68,0,2.68-5.54,4.85-12.37,4.85S8.57,35.91,8.57,33.23c0-2.26,4-4.16,9.31-4.69"/></g></svg>