<svg xmlns="http://www.w3.org/2000/svg" viewBox="0 0 40 49.88"><defs><style>.cls-1{fill:#9db6fc;}.cls-2{fill:#0b006b;}.cls-3{fill:#c8ddfc;stroke:#0b006b;stroke-linecap:round;stroke-linejoin:round;stroke-width:2px;}</style></defs><g id="Слой_2" data-name="Слой 2"><g id="Слой_8" data-name="Слой 8"><path class="cls-1" d="M36,0H4a4,4,0,0,0-2.9,1.24h0A4,4,0,0,0,0,4V40.76a4,4,0,0,0,1.11,2.77h0A4,4,0,0,0,4,44.78H14.82a2.29,2.29,0,0,1,2,1.27l1.38,2.68a2,2,0,0,0,3.55,0L23.16,46a2.28,2.28,0,0,1,2-1.26H36a4,4,0,0,0,2.9-1.24h0A4,4,0,0,0,40,40.76V4a4,4,0,0,0-1.11-2.76h0A4,4,0,0,0,36,0Z"/><path class="cls-2" d="M36,2a2,2,0,0,1,1.45.62A2,2,0,0,1,38,4.05V40.84a2,2,0,0,1-2,2H25.18a4.28,4.28,0,0,0-3.8,2.34L20,47.88,18.62,45.2a4.28,4.28,0,0,0-3.8-2.35H4a2,2,0,0,1-2-2V4.05a2,2,0,0,1,.56-1.39A2,2,0,0,1,4,2H36m0-2H4a4.06,4.06,0,0,0-2.9,1.23A4,4,0,0,0,0,4.05V40.84a4,4,0,0,0,4,4H14.82a2.28,2.28,0,0,1,2,1.26l1.38,2.68A2,2,0,0,0,20,49.88a2,2,0,0,0,1.78-1.08l1.39-2.69a2.28,2.28,0,0,1,2-1.26H36a4,4,0,0,0,4-4V4.05a4,4,0,0,0-1.11-2.78A4.06,4.06,0,0,0,36,0Z"/><path class="cls-3" d="M28.17,20.83a8.07,8.07,0,0,0-9.06-7.92A8.63,8.63,0,0,0,12,19.65a8,8,0,0,0,4.63,8.42.44.44,0,0,1,.27.4v3.84h6.3V28.48a.47.47,0,0,1,.28-.42A8,8,0,0,0,28.17,20.83Z"/><polyline class="cls-3" points="23.22 32.9 22.29 35.89 17.79 35.89 16.86 32.9"/><line class="cls-3" x1="10.74" y1="9.51" x2="13.07" y2="12.27"/><line class="cls-3" x1="29.73" y1="8.97" x2="27.4" y2="11.73"/><line class="cls-3" x1="19.96" y1="6.74" x2="20.04" y2="10.35"/><line class="cls-3" x1="30.7" y1="16.57" x2="34.16" y2="15.51"/><line class="cls-3" x1="9.37" y1="17.12" x2="5.93" y2="16.01"/><line class="cls-3" x1="16.33" y1="19.9" x2="19.57" y2="24.28"/><line class="cls-3" x1="23.86" y1="17.94" x2="19.57" y2="24.28"/></g></g></svg>