<?xml version="1.0" encoding="utf-8"?>
<!-- Generator: Adobe Illustrator 24.2.3, SVG Export Plug-In . SVG Version: 6.00 Build 0)  -->
<svg version="1.1" xmlns="http://www.w3.org/2000/svg" xmlns:xlink="http://www.w3.org/1999/xlink" x="0px" y="0px"
	 viewBox="0 0 40 50" style="enable-background:new 0 0 40 50;" xml:space="preserve">
<style type="text/css">
	.st0{fill:#9DB6FC;}
	.st1{fill:#0B006B;}
	.st2{fill:#C8DDFC;stroke:#0B006B;stroke-width:2;stroke-linecap:round;stroke-linejoin:round;stroke-miterlimit:10;}
	.st3{fill:none;stroke:#0B006B;stroke-width:2;stroke-linecap:round;stroke-linejoin:round;stroke-miterlimit:10;}
	.st4{stroke:#0B006B;stroke-width:0.5;stroke-linecap:round;stroke-linejoin:round;stroke-miterlimit:10;}
	.st5{fill:#C8DDFC;stroke:#0B006B;stroke-width:2;stroke-linejoin:round;stroke-miterlimit:10;}
	.st6{fill:#C8DDFC;}
</style>
<g id="Слой_1">
</g>
<g id="Слой_2">
</g>
<g id="Слой_3">
</g>
<g id="Слой_4">
</g>
<g id="Слой_5">
</g>
<g id="Слой_6">
</g>
<g id="Слой_7">
</g>
<g id="Слой_8">
</g>
<g id="Слой_9">
</g>
<g id="Слой_10">
</g>
<g id="Слой_11">
</g>
<g id="Слой_12">
</g>
<g id="Слой_13">
</g>
<g id="Слой_14">
</g>
<g id="Слой_15">
</g>
<g id="Слой_16">
</g>
<g id="Слой_17">
</g>
<g id="Слой_18">
</g>
<g id="Слой_19">
</g>
<g id="Слой_20">
</g>
<g id="Слой_21">
	<g>
		<g>
			<g>
				<g>
					<path class="st0" d="M36,0.2H4c-1.1,0-2.1,0.4-2.9,1.2l0,0C0.4,2.2,0,3.1,0,4.2v36.7c0,1,0.4,2,1.1,2.8l0,0
						c0.8,0.8,1.8,1.2,2.9,1.2h10.8c0.8,0,1.6,0.5,2,1.3l1.4,2.7c0.7,1.4,2.8,1.4,3.5,0l1.4-2.7c0.4-0.8,1.2-1.3,2-1.3H36
						c1.1,0,2.1-0.4,2.9-1.2l0,0c0.7-0.7,1.1-1.7,1.1-2.8V4.2c0-1-0.4-2-1.1-2.8l0,0C38.1,0.6,37.1,0.2,36,0.2z"/>
				</g>
				<g>
					<path class="st1" d="M36,2.2c0.5,0,1.1,0.2,1.5,0.6C37.8,3.2,38,3.7,38,4.2V41c0,0.5-0.2,1-0.6,1.4C37.1,42.8,36.5,43,36,43
						H25.2c-1.6,0-3.1,0.9-3.8,2.3L20,48l-1.4-2.7c-0.7-1.5-2.2-2.4-3.8-2.4H4c-0.5,0-1.1-0.2-1.5-0.6C2.2,42,2,41.5,2,41V4.2
						c0-0.5,0.2-1,0.6-1.4C2.9,2.4,3.5,2.2,4,2.2H36 M36,0.2H4c-1.1,0-2.1,0.4-2.9,1.2C0.4,2.2,0,3.2,0,4.2V41c0,1,0.4,2,1.1,2.8
						C1.9,44.6,2.9,45,4,45h10.8c0.8,0,1.6,0.5,2,1.3l1.4,2.7c0.4,0.7,1.1,1.1,1.8,1.1c0.7,0,1.4-0.4,1.8-1.1l1.4-2.7
						c0.4-0.8,1.2-1.3,2-1.3H36c1.1,0,2.1-0.4,2.9-1.2C39.6,43,40,42,40,41V4.2c0-1-0.4-2-1.1-2.8C38.1,0.6,37.1,0.2,36,0.2L36,0.2z
						"/>
				</g>
			</g>
		</g>
		<g>
			<path class="st2" d="M16.3,12.7v-0.9c0-1,0.8-1.8,1.8-1.8h3.8c1,0,1.8,0.8,1.8,1.8v0.9"/>
			<path class="st2" d="M29.6,26.2h3.2c0.9,0,1.7,1,1.7,2.1v4.3c0,1.2-0.8,2.1-1.7,2.1h-3.2"/>
			<path class="st2" d="M10.4,26.2H7.2c-0.9,0-1.7,1-1.7,2.1v4.3c0,1.2,0.8,2.1,1.7,2.1h3.2"/>
			<g>
				<path class="st6" d="M11.1,36.1c-0.3,0-0.5-0.2-0.5-0.5V21.4c0-4.6,3.7-8.3,8.3-8.3h2.3c4.6,0,8.3,3.7,8.3,8.3v14.2
					c0,0.3-0.2,0.5-0.5,0.5H11.1z"/>
				<path class="st1" d="M21.2,14.1c4,0,7.3,3.3,7.3,7.3v13.7H11.6V21.4c0-4,3.3-7.3,7.3-7.3H21.2 M21.2,12.1h-2.3
					c-5.1,0-9.3,4.1-9.3,9.3v14.2c0,0.8,0.7,1.5,1.5,1.5h17.9c0.8,0,1.5-0.7,1.5-1.5V21.4C30.4,16.3,26.3,12.1,21.2,12.1L21.2,12.1z
					"/>
			</g>
			<g>
				<path class="st1" d="M25,27.2c0.1,0,0.2,0.1,0.2,0.2v3.8c0,0.1-0.1,0.2-0.2,0.2h-9.6c-0.1,0-0.2-0.1-0.2-0.2v-3.8
					c0-0.1,0.1-0.2,0.2-0.2H25 M25,25.2h-9.6c-1.2,0-2.2,1-2.2,2.2v3.8c0,1.2,1,2.2,2.2,2.2H25c1.2,0,2.2-1,2.2-2.2v-3.8
					C27.2,26.2,26.2,25.2,25,25.2L25,25.2z"/>
			</g>
			<path class="st3" d="M23.6,20h-6.8c-0.4,0-0.7-0.3-0.7-0.7v-0.2c0-1.6,1.3-2.8,2.8-2.8h2.5c1.6,0,2.8,1.3,2.8,2.8v0.2
				C24.3,19.7,24,20,23.6,20z"/>
		</g>
	</g>
</g>
</svg>
