<svg xmlns="http://www.w3.org/2000/svg" viewBox="0 0 40 50"><defs><style>.cls-1{fill:#9db6fc;}.cls-2{fill:#0b006b;}.cls-3{fill:#c8ddfc;}.cls-3,.cls-4{stroke:#0b006b;stroke-linecap:round;stroke-linejoin:round;stroke-width:2px;}.cls-4{fill:none;}</style></defs><g id="Слой_2" data-name="Слой 2"><g id="Слой_15" data-name="Слой 15"><path class="cls-1" d="M36,0H4a4,4,0,0,0-2.9,1.25h0A4,4,0,0,0,0,4V40.86a4,4,0,0,0,1.11,2.77h0A4,4,0,0,0,4,44.89H14.82a2.29,2.29,0,0,1,2,1.27l1.38,2.69a2,2,0,0,0,3.54,0l1.4-2.7a2.27,2.27,0,0,1,2-1.26H36a4,4,0,0,0,2.91-1.25h0A4,4,0,0,0,40,40.86V4a4,4,0,0,0-1.11-2.77h0A4,4,0,0,0,36,0Z"/><path class="cls-2" d="M36,2a2,2,0,0,1,1.45.62A2,2,0,0,1,38,4.06V40.94a2,2,0,0,1-2,2H25.18a4.27,4.27,0,0,0-3.8,2.34L20,48l-1.38-2.69A4.28,4.28,0,0,0,14.81,43H4a2,2,0,0,1-2-2V4.06A2,2,0,0,1,4,2H36m0-2H4a4,4,0,0,0-4,4V40.94a4,4,0,0,0,4,4h10.8a2.28,2.28,0,0,1,2,1.26l1.38,2.69A2,2,0,0,0,20,50a2,2,0,0,0,1.78-1.08l1.39-2.7a2.28,2.28,0,0,1,2-1.26H36a4,4,0,0,0,4-4V4.06a4,4,0,0,0-4-4Z"/><polygon class="cls-3" points="27.4 26.16 6.33 37.96 6.07 14.77 27.4 26.16"/><path class="cls-4" d="M19.15,17c-.35-2.42.4-3.15,1.1-3.39,1.42-.49,3.06.91,5.38.5,1.73-.31,3.44-1.55,3.19-2.83-.3-1.51-3.25-2.54-4.07-2.19-.63.27-.42,1.53.55,2.12,1.31.79,4.29.55,7.14-.92"/><path class="cls-4" d="M7.94,6.25c2.52-.15,3.4.28,3.65.8.59,1.19-1.95,3.13-1.29,4.09.52.75,2.36,0,3.24,1a2,2,0,0,1,.36,1.64"/><path class="cls-4" d="M26.57,22.31a6.51,6.51,0,0,1,7.25,2.5,6,6,0,0,1,0,5.73"/><ellipse class="cls-3" cx="25.75" cy="4.78" rx="0.34" ry="0.48"/><ellipse class="cls-3" cx="30.57" cy="17.8" rx="0.34" ry="0.48"/><ellipse class="cls-3" cx="17.85" cy="9.52" rx="0.34" ry="0.48"/><line class="cls-3" x1="6.22" y1="28.34" x2="11.63" y2="34.99"/><line class="cls-3" x1="6.12" y1="19.13" x2="16.44" y2="31.44"/><line class="cls-3" x1="12.41" y1="18.28" x2="22.2" y2="29.07"/></g></g></svg>