<?xml version="1.0" encoding="utf-8"?>
<!-- Generator: Adobe Illustrator 24.2.3, SVG Export Plug-In . SVG Version: 6.00 Build 0)  -->
<svg version="1.1" xmlns="http://www.w3.org/2000/svg" xmlns:xlink="http://www.w3.org/1999/xlink" x="0px" y="0px"
	 viewBox="0 0 40 50" style="enable-background:new 0 0 40 50;" xml:space="preserve">
<style type="text/css">
	.st0{fill:#9DB6FC;}
	.st1{fill:#0B006B;}
	.st2{fill:#C8DDFC;stroke:#0B006B;stroke-width:2;stroke-linecap:round;stroke-linejoin:round;stroke-miterlimit:10;}
	.st3{fill:none;stroke:#0B006B;stroke-width:2;stroke-linecap:round;stroke-linejoin:round;stroke-miterlimit:10;}
	.st4{stroke:#0B006B;stroke-width:0.5;stroke-linecap:round;stroke-linejoin:round;stroke-miterlimit:10;}
	.st5{fill:#C8DDFC;stroke:#0B006B;stroke-width:2;stroke-linejoin:round;stroke-miterlimit:10;}
	.st6{fill:#C8DDFC;}
</style>
<g id="Слой_1">
</g>
<g id="Слой_2">
</g>
<g id="Слой_3">
</g>
<g id="Слой_4">
</g>
<g id="Слой_5">
</g>
<g id="Слой_6">
</g>
<g id="Слой_7">
</g>
<g id="Слой_8">
</g>
<g id="Слой_9">
</g>
<g id="Слой_10">
</g>
<g id="Слой_11">
</g>
<g id="Слой_12">
</g>
<g id="Слой_13">
</g>
<g id="Слой_14">
</g>
<g id="Слой_15">
</g>
<g id="Слой_16">
</g>
<g id="Слой_17">
</g>
<g id="Слой_18">
</g>
<g id="Слой_19">
</g>
<g id="Слой_20">
	<g>
		<g>
			<g>
				<g>
					<path class="st0" d="M36,0.1H4c-1.1,0-2.1,0.4-2.9,1.2l0,0C0.4,2.1,0,3,0,4.1v36.7c0,1,0.4,2,1.1,2.8l0,0
						c0.8,0.8,1.8,1.2,2.9,1.2h10.8c0.8,0,1.6,0.5,2,1.3l1.4,2.7c0.7,1.4,2.8,1.4,3.5,0l1.4-2.7c0.4-0.8,1.2-1.3,2-1.3H36
						c1.1,0,2.1-0.4,2.9-1.2l0,0c0.7-0.7,1.1-1.7,1.1-2.8V4.1c0-1-0.4-2-1.1-2.8l0,0C38.1,0.5,37.1,0.1,36,0.1z"/>
				</g>
				<g>
					<path class="st1" d="M36,2.1c0.5,0,1.1,0.2,1.5,0.6C37.8,3.1,38,3.6,38,4.1v36.8c0,0.5-0.2,1-0.6,1.4c-0.4,0.4-0.9,0.6-1.5,0.6
						H25.2c-1.6,0-3.1,0.9-3.8,2.3L20,47.9l-1.4-2.7c-0.7-1.5-2.2-2.4-3.8-2.4H4c-0.5,0-1.1-0.2-1.5-0.6C2.2,41.9,2,41.4,2,40.9V4.1
						c0-0.5,0.2-1,0.6-1.4C2.9,2.3,3.5,2.1,4,2.1H36 M36,0.1H4c-1.1,0-2.1,0.4-2.9,1.2C0.4,2.1,0,3.1,0,4.1v36.8c0,1,0.4,2,1.1,2.8
						v0c0.8,0.8,1.8,1.2,2.9,1.2h10.8c0.8,0,1.6,0.5,2,1.3l1.4,2.7c0.4,0.7,1.1,1.1,1.8,1.1c0.7,0,1.4-0.4,1.8-1.1l1.4-2.7
						c0.4-0.8,1.2-1.3,2-1.3H36c1.1,0,2.1-0.4,2.9-1.2v0c0.7-0.7,1.1-1.7,1.1-2.8V4.1c0-1-0.4-2-1.1-2.8C38.1,0.5,37.1,0.1,36,0.1
						L36,0.1z"/>
				</g>
			</g>
		</g>
		<circle class="st2" cx="16" cy="8.5" r="3.3"/>
		<path class="st2" d="M16.1,25.8l-0.6,0.1c-1.4,0.2-2.8-0.7-3-2.2l-1-6.4c-0.2-1.4,0.7-2.8,2.2-3l0.6-0.1c1.4-0.2,2.8,0.7,3,2.2
			l1,6.4C18.5,24.3,17.5,25.6,16.1,25.8z"/>
		<polyline class="st3" points="15.4,17.7 20.9,19.6 25.8,17 		"/>
		<polyline class="st3" points="18.4,24.8 21.5,27.1 20.9,33 		"/>
		<polyline class="st3" points="14.9,26.3 17.1,30 15.6,36.9 		"/>
		<line class="st3" x1="24.5" y1="13.7" x2="25.3" y2="29.9"/>
		<polyline class="st3" points="12.7,39.3 28.5,27.7 29.4,23.2 34.3,18.7 		"/>
		<path class="st2" d="M9.3,26.2l-0.3,0c-0.6,0.1-1.2-0.4-1.3-1.1l-1.1-7.1c-0.1-0.7,0.3-1.4,0.9-1.5l0.3,0c0.6-0.1,1.2,0.4,1.3,1.1
			l1.1,7.1C10.3,25.4,9.9,26.1,9.3,26.2z"/>
	</g>
</g>
<g id="Слой_21">
</g>
</svg>
