<svg xmlns="http://www.w3.org/2000/svg" viewBox="0 0 40 50"><defs><style>.cls-1{fill:#9db6fc;}.cls-2{fill:#0b006b;}.cls-3{fill:#c8ddfc;stroke:#0b006b;stroke-linecap:round;stroke-linejoin:round;stroke-width:2px;}</style></defs><g id="Слой_2" data-name="Слой 2"><g id="Слой_3" data-name="Слой 3"><path class="cls-1" d="M36,0H4a4,4,0,0,0-2.9,1.25h0A4,4,0,0,0,0,4V40.86a4,4,0,0,0,1.11,2.77h0A4,4,0,0,0,4,44.89H14.82a2.29,2.29,0,0,1,2,1.27l1.38,2.69a2,2,0,0,0,3.55,0l1.39-2.7a2.28,2.28,0,0,1,2-1.26H36a4,4,0,0,0,2.9-1.25h0A4,4,0,0,0,40,40.86V4a4,4,0,0,0-1.11-2.77h0A4,4,0,0,0,36,0Z"/><path class="cls-2" d="M36,2a2,2,0,0,1,2,2V40.94a2,2,0,0,1-2,2H25.18a4.27,4.27,0,0,0-3.8,2.34L20,48l-1.38-2.69A4.28,4.28,0,0,0,14.82,43H4a2,2,0,0,1-2-2V4.06A2,2,0,0,1,4,2H36m0-2H4a4,4,0,0,0-4,4V40.94a4,4,0,0,0,4,4H14.82a2.28,2.28,0,0,1,2,1.26l1.38,2.69A2,2,0,0,0,20,50a2,2,0,0,0,1.78-1.08l1.39-2.7a2.28,2.28,0,0,1,2-1.26H36a4,4,0,0,0,4-4V4.06a4,4,0,0,0-4-4Z"/><path class="cls-3" d="M25.52,36.17V31.86c2.76.52,3.67.12,4-.38.14-.23.11-.44,0-1.8-.21-2.43-.19-2.74,0-3s2.05,1.07,3.24,0l-1.82-4.22a1.27,1.27,0,0,1-.08-.77C32.55,12.08,23.1,2.12,12.65,9s-2.27,20.47-2.27,20.47v6.71Z"/><path class="cls-3" d="M24.22,25.56a8.28,8.28,0,1,1,3.49-6.76,8.31,8.31,0,0,1-.53,2.92"/><path class="cls-3" d="M16.13,16.4a4.31,4.31,0,1,1-.73,2.45"/><path class="cls-3" d="M20.93,17.64a1.61,1.61,0,0,0-2.13.51A1.39,1.39,0,0,0,19.15,20a1.37,1.37,0,0,0,1.63-.2"/><line class="cls-3" x1="19.43" y1="23.62" x2="20.11" y2="26.66"/><line class="cls-3" x1="18.19" y1="14.73" x2="19.77" y2="17.13"/><line class="cls-3" x1="23.79" y1="15.93" x2="26.64" y2="14.73"/></g></g></svg>