<svg xmlns="http://www.w3.org/2000/svg" viewBox="0 0 40 50"><defs><style>.cls-1{fill:#9db6fc;}.cls-2{fill:#0b006b;}.cls-3{fill:#c8ddfc;}.cls-3,.cls-4{stroke:#0b006b;stroke-linecap:round;stroke-linejoin:round;stroke-width:2px;}.cls-4{fill:none;}</style></defs><g id="Слой_2" data-name="Слой 2"><g id="Слой_14" data-name="Слой 14"><path class="cls-1" d="M36,0H4a4,4,0,0,0-2.9,1.25h0A4,4,0,0,0,0,4V40.86a4,4,0,0,0,1.11,2.77h0A4,4,0,0,0,4,44.89H14.82a2.29,2.29,0,0,1,2,1.27l1.38,2.69a2,2,0,0,0,3.54,0l1.4-2.7a2.27,2.27,0,0,1,2-1.26H36a4,4,0,0,0,2.91-1.25h0A4,4,0,0,0,40,40.86V4a4,4,0,0,0-1.11-2.77h0A4,4,0,0,0,36,0Z"/><path class="cls-2" d="M36,2a2,2,0,0,1,1.45.62A2,2,0,0,1,38,4.06V40.94a2,2,0,0,1-2,2H25.18a4.27,4.27,0,0,0-3.8,2.34L20,48l-1.38-2.69A4.28,4.28,0,0,0,14.81,43H4a2,2,0,0,1-2-2V4.06A2,2,0,0,1,4,2H36m0-2H4a4,4,0,0,0-4,4V40.94a4.06,4.06,0,0,0,1.11,2.78A4,4,0,0,0,4,45h10.8a2.28,2.28,0,0,1,2,1.26l1.38,2.69A2,2,0,0,0,20,50a2,2,0,0,0,1.78-1.08l1.39-2.7a2.28,2.28,0,0,1,2-1.26H36a4,4,0,0,0,4-4V4.06a4,4,0,0,0-4-4Z"/><path class="cls-3" d="M33,34.39a1.39,1.39,0,1,0,0,2.77H9.59C8.16,37.16,7,36.54,7,35.78s1.25-1.47,2.58-1.46"/><path class="cls-3" d="M9.41,5.73A2.28,2.28,0,0,0,7.07,8L7,35.78a2.17,2.17,0,0,1,2.64-1.52"/><rect class="cls-3" x="9.59" y="5.73" width="23.4" height="28.6"/><line class="cls-4" x1="24.18" y1="19.03" x2="24.18" y2="5.8"/><polyline class="cls-4" points="24.18 19.03 26.11 16.62 28.18 19"/><line class="cls-4" x1="28.18" y1="5.73" x2="28.18" y2="18.94"/></g></g></svg>