<svg xmlns="http://www.w3.org/2000/svg" viewBox="0 0 40 50"><defs><style>.cls-1{fill:#9db6fc;}.cls-2{fill:#0b006b;}.cls-3{fill:#c8ddfc;stroke:#0b006b;stroke-linecap:round;stroke-linejoin:round;stroke-width:2px;}</style></defs><g id="Слой_2" data-name="Слой 2"><g id="Слой_2-2" data-name="Слой 2"><path class="cls-1" d="M36,0H4a4,4,0,0,0-2.9,1.25h0A4,4,0,0,0,0,4V40.86a4,4,0,0,0,1.11,2.77h0A4,4,0,0,0,4,44.89H14.82a2.29,2.29,0,0,1,2,1.27l1.38,2.69a2,2,0,0,0,3.55,0l1.39-2.7a2.28,2.28,0,0,1,2-1.26H36a4,4,0,0,0,2.9-1.25h0A4,4,0,0,0,40,40.86V4a4,4,0,0,0-1.11-2.77h0A4,4,0,0,0,36,0Z"/><path class="cls-2" d="M36,2a2,2,0,0,1,2,2V40.94a2,2,0,0,1-2,2H25.18a4.27,4.27,0,0,0-3.8,2.34L20,48l-1.38-2.69A4.28,4.28,0,0,0,14.82,43H4a2,2,0,0,1-2-2V4.06A2,2,0,0,1,4,2H36m0-2H4a4,4,0,0,0-4,4V40.94a4,4,0,0,0,4,4H14.82a2.28,2.28,0,0,1,2,1.26l1.38,2.69A2,2,0,0,0,20,50a2,2,0,0,0,1.78-1.08l1.39-2.7a2.28,2.28,0,0,1,2-1.26H36a4,4,0,0,0,4-4V4.06a4,4,0,0,0-4-4Z"/><path class="cls-3" d="M18.73,38.14l3.87,1.75.08-.18L35.57,14.49l-3.93-2.23c-.92,1.69-3.43,2.06-5.25,1a3.8,3.8,0,0,1-1.69-5L20.18,5.39,7.37,30.68l-.07.12,3.88,2.5,0,0a4.21,4.21,0,0,1,5.75-1c2,1.21,3,3.83,1.87,5.6Z"/><rect class="cls-3" x="16.88" y="14.87" width="9.26" height="15.16" transform="translate(12.81 -7.4) rotate(27.52)"/><line class="cls-3" x1="24.88" y1="18.82" x2="20.47" y2="27.29"/><line class="cls-3" x1="17.37" y1="26.06" x2="18.08" y2="24.77"/><path class="cls-3" d="M16.89,11.7a4.55,4.55,0,0,1-3.71-4.46v0L7.7,7.46v22.7Z"/><line class="cls-3" x1="21.16" y1="18.68" x2="21.86" y2="17.38"/><line class="cls-3" x1="19.3" y1="22.45" x2="20" y2="21.15"/></g></g></svg>